<svg width="49" height="49" viewBox="0 0 49 49" fill="none" xmlns="http://www.w3.org/2000/svg">
<circle cx="24.5" cy="24.5" r="24.5" fill="white"/>
<path fill-rule="evenodd" clip-rule="evenodd" d="M19.3291 17.8632C19.3291 16.3082 19.9468 14.8169 21.0464 13.7173C22.1459 12.6177 23.6373 12 25.1923 12C26.7473 12 28.2387 12.6177 29.3383 13.7173C30.4378 14.8169 31.0556 16.3082 31.0556 17.8632C31.0556 19.4183 30.4378 20.9096 29.3383 22.0092C28.2387 23.1088 26.7473 23.7265 25.1923 23.7265C23.6373 23.7265 22.1459 23.1088 21.0464 22.0092C19.9468 20.9096 19.3291 19.4183 19.3291 17.8632ZM19.3291 26.6581C17.3853 26.6581 15.5211 27.4303 14.1466 28.8048C12.7722 30.1792 12 32.0434 12 33.9872C12 35.1535 12.4633 36.272 13.288 37.0966C14.1127 37.9213 15.2312 38.3846 16.3974 38.3846H33.9872C35.1535 38.3846 36.272 37.9213 37.0966 37.0966C37.9213 36.272 38.3846 35.1535 38.3846 33.9872C38.3846 32.0434 37.6124 30.1792 36.238 28.8048C34.8635 27.4303 32.9993 26.6581 31.0556 26.6581H19.3291Z" fill="#1B0066"/>
</svg>
